o ArrowButton
v -0.85 0.1 0.4
v 0.85 0.1 0.4
v 0 0.1 -0.4
v 0.942956979100356 -4.93881194621459E-17 0.436864617677876
v 0 6.12303176911189E-18 -0.4517
v -0.942956979100356 -4.93881194621459E-17 0.436864617677876
vt 0.227272727272727 0.204545454545455
vt 1 0.204545454545455
vt 0.227272727272727 0.568181818181818
vn 0 1 0
vn 0.641414456579401 0.352336978679772 -0.681502860115614
vn 0.643060273733316 0.345891335947501 -0.683251540841648
vn 0.643355827593594 0.34635537310212 -0.682738042461861
vn 0.641871704382047 0.352161307459538 -0.681163070521351
vn 0 0 0
vn 0 0.345891335947496 0.938274577997537
vn 0 0.345891335947496 0.938274577997537
vn -0.643060273733316 0.345891335947501 -0.683251540841648
vn -0.641414456579401 0.352336978679772 -0.681502860115614
vn -0.641871704382047 0.352161307459538 -0.681163070521351
vn -0.643355827593594 0.34635537310212 -0.682738042461861
g ArrowButton
f 1/1/1 2/2/1 3/3/1
f 3//2 2//3 4//4 5//5
f 5//6 4//6 4//6 5//6
f 2//7 1//7 6//8 4//8
f 4//6 6//6 6//6 4//6
f 1//9 3//10 5//11 6//12
f 6//6 5//6 5//6 6//6
#h 
