o Button
v -0.3 0.2 0.3
v 0.3 0.2 0.3
v 0 0.2 0
v 0.3 0.2 -0.3
v -0.3 0.2 -0.3
v 0.343701602444882 0.190211303259031 0.343701602444882
v 0.343701602444882 0.190211303259031 -0.343701602444882
v 0.383125387555491 0.16180339887499 0.383125387555491
v 0.383125387555491 0.16180339887499 -0.383125387555491
v 0.414412280563537 0.117557050458495 0.414412280563537
v 0.414412280563537 0.117557050458495 -0.414412280563537
v 0.434499702392791 0.0618033988749895 0.434499702392791
v 0.434499702392791 0.0618033988749895 -0.434499702392791
v 0.441421356237309 0 0.441421356237309
v 0.441421356237309 0 -0.441421356237309
v -0.343701602444882 0.190211303259031 0.343701602444882
v -0.383125387555491 0.16180339887499 0.383125387555491
v -0.414412280563537 0.117557050458495 0.414412280563537
v -0.434499702392791 0.0618033988749895 0.434499702392791
v -0.441421356237309 0 0.441421356237309
v -0.343701602444882 0.190211303259031 -0.343701602444882
v -0.383125387555491 0.16180339887499 -0.383125387555491
v -0.414412280563537 0.117557050458495 -0.414412280563537
v -0.434499702392791 0.0618033988749895 -0.434499702392791
v -0.441421356237309 0 -0.441421356237309
vt 0.215 0.785
vt 0.785 0.785
vt 0.5 0.5
vt 0.785 0.215
vt 0.215 0.215
vn 0 1 0
vn 0.218573470152211 0.975820494837867 0
vn 0.218573470152211 0.975820494837867 0
vn 0.584613414413205 0.81131199651437 0
vn 0.584613414413205 0.81131199651437 0
vn 0.816496580927729 0.577350269189622 0
vn 0.816496580927728 0.577350269189622 0
vn 0.940800759979994 0.33896007142592 0
vn 0.993786978145484 0.111298886195986 0
vn 0.993786978145484 0.111298886195986 0
vn 0 0 0
vn 0 0.975820494837867 0.218573470152211
vn 0 0.975820494837867 0.218573470152211
vn 0 0.81131199651437 0.584613414413205
vn 0 0.81131199651437 0.584613414413205
vn 0 0.577350269189622 0.816496580927729
vn 0 0.577350269189622 0.816496580927728
vn 0 0.33896007142592 0.940800759979994
vn 0 0.111298886195986 0.993786978145484
vn 0 0.111298886195986 0.993786978145484
vn -0.218573470152211 0.975820494837867 0
vn -0.218573470152211 0.975820494837867 0
vn -0.584613414413205 0.81131199651437 0
vn -0.584613414413205 0.81131199651437 0
vn -0.816496580927729 0.577350269189622 0
vn -0.816496580927728 0.577350269189622 0
vn -0.940800759979994 0.33896007142592 0
vn -0.993786978145484 0.111298886195986 0
vn -0.993786978145484 0.111298886195986 0
vn 0 0.975820494837867 -0.218573470152211
vn 0 0.975820494837867 -0.218573470152211
vn 0 0.81131199651437 -0.584613414413205
vn 0 0.81131199651437 -0.584613414413205
vn 0 0.577350269189622 -0.816496580927729
vn 0 0.577350269189622 -0.816496580927728
vn 0 0.33896007142592 -0.940800759979994
vn 0 0.111298886195986 -0.993786978145484
vn 0 0.111298886195986 -0.993786978145484
g Button
f 1/1/1 2/2/1 3/3/1
f 2/2/1 4/4/1 3/3/1
f 4/4/1 5/5/1 3/3/1
f 5/5/1 1/1/1 3/3/1
f 4//2 2//2 6//3 7//3
f 7//4 6//4 8//5 9//5
f 9//6 8//6 10//7 11//7
f 11//8 10//8 12//8 13//8
f 13//9 12//9 14//10 15//10
f 15//11 14//11 14//11 15//11
f 2//12 1//12 16//13 6//13
f 6//14 16//14 17//15 8//15
f 8//16 17//16 18//17 10//17
f 10//18 18//18 19//18 12//18
f 12//19 19//19 20//20 14//20
f 14//11 20//11 20//11 14//11
f 1//21 5//21 21//22 16//22
f 16//23 21//23 22//24 17//24
f 17//25 22//25 23//26 18//26
f 18//27 23//27 24//27 19//27
f 19//28 24//28 25//29 20//29
f 20//11 25//11 25//11 20//11
f 5//30 4//30 7//31 21//31
f 21//32 7//32 9//33 22//33
f 22//34 9//34 11//35 23//35
f 23//36 11//36 13//36 24//36
f 24//37 13//37 15//38 25//38
f 25//11 15//11 15//11 25//11
#h 
